<?xml version="1.0" standalone="no"?>
<!DOCTYPE svg PUBLIC "-//W3C//DTD SVG 20010904//EN"
 "http://www.w3.org/TR/2001/REC-SVG-20010904/DTD/svg10.dtd">
<svg version="1.0" xmlns="http://www.w3.org/2000/svg"
 width="200.000000pt" height="200.000000pt" viewBox="0 0 200.000000 200.000000"
 preserveAspectRatio="xMidYMid meet">
<metadata>
Created by potrace 1.14, written by Peter Selinger 2001-2017
</metadata>
<g transform="translate(0.000000,200.000000) scale(0.100000,-0.100000)"
fill="#000000" stroke="none">
<path d="M0 1000 l0 -1000 1000 0 1000 0 0 1000 0 1000 -1000 0 -1000 0 0
-1000z m1000 255 c0 -13 -51 -15 -400 -15 l-400 0 0 -240 0 -240 400 0 c349 0
400 -2 400 -15 0 -13 -53 -15 -415 -15 l-415 0 0 270 0 270 415 0 c362 0 415
-2 415 -15z m-642 -245 c4 0 13 9 20 20 7 11 17 20 24 20 6 0 3 -9 -7 -20 -18
-20 -18 -21 4 -50 12 -17 17 -30 12 -30 -6 0 -18 11 -27 26 -18 26 -29 23 -37
-11 -3 -11 -5 7 -4 40 0 33 2 48 4 33 2 -16 7 -28 11 -28z m168 37 c4 -4 -7
-7 -24 -7 -22 0 -32 -5 -32 -15 0 -9 9 -15 25 -15 14 0 25 -4 25 -10 0 -5 -11
-10 -25 -10 -38 0 -32 -28 8 -33 31 -4 31 -4 -5 -5 l-38 -2 0 53 c0 53 0 53
30 52 16 -1 33 -4 36 -8z m63 -28 l18 -40 17 42 c9 23 19 39 22 36 3 -3 -5
-29 -17 -58 l-23 -53 -22 50 c-24 52 -27 64 -19 64 4 0 14 -18 24 -41z m108
-41 c-2 -18 -4 -6 -4 27 0 33 2 48 4 33 2 -15 2 -42 0 -60z m143 25 l0 -57
-39 38 -40 39 -4 -39 c-3 -32 -4 -30 -5 16 l-2 54 40 -39 40 -39 0 42 c0 23 2
42 5 42 3 0 5 -26 5 -57z m167 43 c3 -3 -1 -6 -10 -6 -13 0 -17 -10 -17 -45 0
-25 -4 -45 -10 -45 -5 0 -10 20 -10 45 0 25 -4 45 -10 45 -5 0 -10 4 -10 9 0
10 57 8 67 -3z m78 -4 c-35 -7 -39 -20 -12 -33 18 -8 27 -20 27 -35 0 -26 -25
-38 -48 -24 -14 8 -12 9 11 10 34 0 36 23 2 38 -14 6 -25 18 -25 26 0 19 29
36 49 28 13 -5 12 -7 -4 -10z m235 8 c0 -5 -11 -10 -25 -10 -16 0 -25 -6 -25
-15 0 -8 9 -15 19 -15 11 0 23 -4 26 -10 3 -6 -5 -10 -19 -10 -18 0 -26 -6
-29 -22 -2 -13 -5 0 -6 29 -1 41 2 52 17 56 30 8 42 7 42 -3z m207 3 c14 -6
10 -9 -17 -13 -32 -5 -35 -8 -35 -40 0 -32 3 -36 35 -41 21 -4 27 -7 15 -9
-33 -4 -49 1 -62 18 -19 23 -16 49 7 72 22 22 29 24 57 13z m94 -17 c16 15 29
23 29 17 0 -5 -9 -18 -20 -28 -19 -18 -19 -18 1 -46 11 -16 17 -29 12 -29 -4
0 -14 9 -21 20 -16 26 -30 25 -35 -2 -2 -13 -4 4 -4 37 0 33 2 47 4 31 l5 -28
29 28z m-421 -32 c23 -53 25 -63 8 -46 -15 15 -58 16 -58 2 0 -5 -4 -10 -9
-10 -5 0 0 23 12 50 11 28 22 50 24 50 2 0 13 -21 23 -46z m223 -54 c-3 -3 -8
1 -10 8 -3 6 -15 12 -27 12 -12 0 -28 -6 -35 -12 -8 -9 -7 1 4 27 9 22 20 47
23 55 4 9 13 -2 28 -35 13 -27 20 -52 17 -55z"/>
<path d="M1167 1006 c-6 -15 1 -26 15 -26 11 0 10 27 -1 34 -5 3 -11 0 -14 -8z"/>
<path d="M1376 1005 c-9 -23 -8 -25 9 -25 17 0 19 9 6 28 -7 11 -10 10 -15 -3z"/>
</g>
</svg>
